<?xml version="1.0" encoding="utf-8"?>
<!-- Generator: Adobe Illustrator 16.0.0, SVG Export Plug-In . SVG Version: 6.00 Build 0)  -->
<!DOCTYPE svg PUBLIC "-//W3C//DTD SVG 1.1//EN" "http://www.w3.org/Graphics/SVG/1.1/DTD/svg11.dtd">
<svg version="1.1" id="Layer_1" xmlns="http://www.w3.org/2000/svg" xmlns:xlink="http://www.w3.org/1999/xlink" x="0px" y="0px"
	 width="3059px" height="2469px" viewBox="0 0 3059 2469" enable-background="new 0 0 3059 2469" xml:space="preserve">
<g>
	<path opacity="0.8" fill="#BC1F39" d="M1425.184,1306.003h396.759v-73.398h-254.428c-34.247,34.068-74.331,56.868-120.007,68.721
		C1440.103,1303.247,1432.662,1304.803,1425.184,1306.003z"/>
	<path opacity="0.3" fill="#020202" d="M1344.909,1232.605h-25.4c7.998,0.014,15.992,0,23.988,0.03
		C1343.969,1232.636,1344.438,1232.607,1344.909,1232.605z"/>
	<path opacity="0.8" fill="#BC1F39" d="M1626.677,1076.087h195.267v-73.398h-202.133
		C1622.834,1012.995,1630.72,1044.133,1626.677,1076.087z"/>
	<path opacity="0.8" fill="#BC1F39" d="M1821.943,812.578h-369.757c57.638,21.547,94.854,62.094,104.435,73.398h265.322V812.578z"/>
	<path fill="#68297C" d="M1293.789,1312.723c17.844,0,34.643-0.128,51.438,0.033c14.158,0.133,28.168-0.87,42.059-2.962
		c7.977-1.201,15.916-2.757,23.818-4.678c48.729-11.853,91.494-34.653,128.031-68.721c1.025-0.955,2.061-1.883,3.076-2.855
		c24.201-23.21,43.017-50.267,55.916-81.289c8.367-20.115,13.787-41.007,15.834-62.692c0.029-0.792,0.096-1.593,0.25-2.415
		c0.04-0.498,0.119-0.904,0.216-1.272c0.351-1.999,0.628-3.997,0.881-5.994c4.043-31.954-3.841-63.093-6.866-73.398
		c-0.279-0.949-0.531-1.786-0.713-2.365c-0.147-0.383-0.285-0.803-0.41-1.271c-7.832-29.153-21.495-55.422-39.843-79.318
		c-8.27-10.771-17.429-20.748-27.827-30.741c0,0-0.881-1.102-2.553-3.018c-9.879-11.305-48.237-51.851-107.647-73.398h-151.557
		v0.001c-26.19,0-52.378,0.012-78.569,0c-2.846,0-3.535,0.656-3.516,3.511c0.128,23.031,0.148,46.065-0.015,69.099
		c-0.019,3.211,0.799,3.888,3.934,3.881c49.882-0.109,99.768-0.095,149.65-0.064c10.94,0.008,21.815,1.156,32.536,3.196
		c25.125,4.772,48.834,13.549,70.855,26.584c32.847,19.445,58.733,45.375,74.241,80.801c0.702,1.608,1.101,2.539,1.072,3.103
		h-226.186v0.777c-33.956-0.013-67.912,0.007-101.867-0.028c-3.584-0.003-4.247,1.024-4.225,4.356
		c0.145,22.65,0.174,45.305-0.023,67.953c-0.032,3.636,1.103,4.198,4.387,4.196c110.84-0.083,221.674-0.07,332.516-0.07
		c5.563,0,5.501-0.009,4.649,5.625c-5.04,33.398-20.311,61.613-43.671,85.612c-19.545,20.073-42.767,34.775-68.556,45.408
		c-25.664,10.588-52.377,16.005-80.195,16.086c-0.472,0.002-0.94,0.032-1.412,0.03c-7.996-0.03-15.99-0.017-23.988-0.03
		c-39.978-0.068-79.957-0.009-119.935-0.081c-2.852-0.002-3.793,0.53-3.777,3.638c0.137,29.268,0.111,58.536,0.028,87.807
		c-0.006,2.28,0.781,3.655,2.484,5.06c18.89,15.579,37.733,31.217,56.551,46.883c22.242,18.515,44.427,37.095,66.67,55.605
		c29.447,24.512,58.942,48.966,88.389,73.48c27.993,23.304,55.945,46.659,83.932,69.975c30.228,25.183,60.484,50.334,90.695,75.539
		c1.642,1.367,3.25,2.061,5.454,2.057c37.668-0.067,75.335-0.043,113.001-0.081c0.869,0,1.994,0.61,2.742-0.649
		C1568.624,1541.488,1431.524,1427.371,1293.789,1312.723z"/>
</g>
</svg>
